<svg xmlns="http://www.w3.org/2000/svg" viewBox="0 0 500 500"><g id="freepik--background-complete--inject-55"><rect y="382.4" width="500" height="0.25" style="fill:#ebebeb"></rect><rect x="416.78" y="398.49" width="33.12" height="0.25" style="fill:#ebebeb"></rect><rect x="322.53" y="401.21" width="8.69" height="0.25" style="fill:#ebebeb"></rect><rect x="396.59" y="389.21" width="19.19" height="0.25" style="fill:#ebebeb"></rect><rect x="52.46" y="390.89" width="43.19" height="0.25" style="fill:#ebebeb"></rect><rect x="104.56" y="390.89" width="6.33" height="0.25" style="fill:#ebebeb"></rect><rect x="131.47" y="395.11" width="93.68" height="0.25" style="fill:#ebebeb"></rect><path d="M237,337.8H43.91a5.71,5.71,0,0,1-5.7-5.71V60.66A5.71,5.71,0,0,1,43.91,55H237a5.71,5.71,0,0,1,5.71,5.71V332.09A5.71,5.71,0,0,1,237,337.8ZM43.91,55.2a5.46,5.46,0,0,0-5.45,5.46V332.09a5.46,5.46,0,0,0,5.45,5.46H237a5.47,5.47,0,0,0,5.46-5.46V60.66A5.47,5.47,0,0,0,237,55.2Z" style="fill:#ebebeb"></path><path d="M453.31,337.8H260.21a5.72,5.72,0,0,1-5.71-5.71V60.66A5.72,5.72,0,0,1,260.21,55h193.1A5.71,5.71,0,0,1,459,60.66V332.09A5.71,5.71,0,0,1,453.31,337.8ZM260.21,55.2a5.47,5.47,0,0,0-5.46,5.46V332.09a5.47,5.47,0,0,0,5.46,5.46h193.1a5.47,5.47,0,0,0,5.46-5.46V60.66a5.47,5.47,0,0,0-5.46-5.46Z" style="fill:#ebebeb"></path><rect x="398.82" y="200.21" width="13.85" height="36.31" style="fill:#f0f0f0"></rect><rect x="131.29" y="119.97" width="107.67" height="202.52" style="fill:#e0e0e0"></rect><rect x="86.87" y="170.39" width="196.52" height="101.67" transform="translate(406.36 36.1) rotate(90)" style="fill:#ebebeb"></rect><rect x="144.32" y="130.3" width="81.61" height="20.45" style="fill:#f5f5f5"></rect><rect x="144.32" y="167.02" width="81.61" height="20.45" style="fill:#f5f5f5"></rect><rect x="144.32" y="203.75" width="81.61" height="20.45" style="fill:#f5f5f5"></rect><rect x="144.32" y="240.48" width="81.61" height="69.03" style="fill:#f5f5f5"></rect><polygon points="180.65 154.03 185.13 158.51 189.6 154.03 180.65 154.03" style="fill:#e0e0e0"></polygon><polygon points="180.65 190.43 185.13 194.9 189.6 190.43 180.65 190.43" style="fill:#e0e0e0"></polygon><polygon points="180.65 227.49 185.13 231.96 189.6 227.49 180.65 227.49" style="fill:#e0e0e0"></polygon><rect x="303.88" y="102.83" width="88.22" height="38.38" style="fill:#e0e0e0"></rect><rect x="307.2" y="105.9" width="81.59" height="32.25" style="fill:#ebebeb"></rect><rect x="354.91" y="110.84" width="29.67" height="22.76" style="fill:#f5f5f5"></rect><polygon points="111.4 239.78 89.24 239.78 89.24 215.13 97.06 207.13 111.4 207.13 111.4 239.78" style="fill:#e0e0e0"></polygon><polygon points="89.24 215.13 101.77 215.13 111.4 207.13 97.06 207.13 89.24 215.13" style="fill:#f5f5f5"></polygon><rect x="89.24" y="215.13" width="12.53" height="24.64" style="fill:#e6e6e6"></rect><path d="M408,219.68c-.07,1.77-1.18,3.19-2.56,3.19s-2.49-1.42-2.56-3.19h-6.46v23.8h18.05v-23.8Z" style="fill:#e0e0e0"></path></g><g id="freepik--Shadow--inject-55"><ellipse id="freepik--path--inject-55" cx="250" cy="416.24" rx="193.89" ry="11.32" style="fill:#f5f5f5"></ellipse></g><g id="freepik--Plant--inject-55"><path d="M107.17,383.24s-6.58-14.35.93-28.49,9.7-17.48,4.91-20.38-7,11.32-7,11.32-4-9.78-.71-20,5.43-26.9.88-28.69-.87,20.79-4.82,28.49a66.37,66.37,0,0,1-3.87-16.79c-.54-8.22.31-21.34-3.29-24.71s-5.89-1-2.36,17.1A190.39,190.39,0,0,1,95.36,334s-7.81-23.8-13-24.49-5.23,7-.74,13.69S94.7,341.83,96.11,348c0,0-8.56-17.91-16.27-12.42S86.55,351.88,93,355.78s10.89,28.41,10.89,28.41Z" style="fill:#797C86"></path><path d="M107.17,383.24s-6.58-14.35.93-28.49,9.7-17.48,4.91-20.38-7,11.32-7,11.32-4-9.78-.71-20,5.43-26.9.88-28.69-.87,20.79-4.82,28.49a66.37,66.37,0,0,1-3.87-16.79c-.54-8.22.31-21.34-3.29-24.71s-5.89-1-2.36,17.1A190.39,190.39,0,0,1,95.36,334s-7.81-23.8-13-24.49-5.23,7-.74,13.69S94.7,341.83,96.11,348c0,0-8.56-17.91-16.27-12.42S86.55,351.88,93,355.78s10.89,28.41,10.89,28.41Z" style="isolation:isolate;opacity:0.2"></path><path d="M102,389.13s6.41-14.45-1.27-28.48-9.91-17.33-5.15-20.3,7.12,11.21,7.12,11.21,3.92-9.84.47-20-5.75-26.82-1.22-28.67,1.12,20.78,5.16,28.41a66,66,0,0,0,3.66-16.84c.45-8.23-.56-21.34,3-24.76s5.88-1.12,2.57,17.07a189.84,189.84,0,0,0-3.12,32.93s7.52-23.91,12.75-24.68,5.31,6.93.91,13.68-12.9,18.85-14.25,25c0,0,8.35-18,16.12-12.66s-6.51,16.41-12.88,20.41S105.29,390,105.29,390Z" style="fill:#797C86"></path><polygon points="131.51 378.83 78.61 378.83 82.89 416.69 127.23 416.69 131.51 378.83" style="fill:#263238"></polygon></g><g id="freepik--Machine--inject-55"><polygon points="388.74 169.07 388.74 416.33 231.87 416.33 231.87 306.77 248.55 283.54 343.92 150.75 388.74 169.07" style="fill:#263238"></polygon><polygon points="388.74 169.07 388.74 416.33 231.87 416.33 231.87 306.77 248.55 283.54 343.92 150.75 388.74 169.07" style="fill:#fff;opacity:0.2"></polygon><polygon points="319.11 283.54 319.11 416.69 231.87 416.69 231.87 306.77 248.55 283.54 319.11 283.54" style="fill:#fff;opacity:0.2"></polygon><path d="M299.43,384.7H245.52V333.5h53.91Zm-53-.92h52.07V334.42H246.44Z" style="opacity:0.2"></path><path d="M350.25,146.47H278.63S225.15,253.78,225.15,275.1v33.06a6.55,6.55,0,0,0,6.55,6.55h88.49a6.55,6.55,0,0,0,6.55-6.55V274.25c0-28.87,28.17-123.5,28.17-123.5Z" style="fill:#797C86"></path><path d="M312.56,314.71a6.55,6.55,0,0,0,6.55-6.55V275.1c0-28.26,31.14-128.63,31.14-128.63H278.63S225.15,253.78,225.15,275.1v33.06a6.55,6.55,0,0,0,6.55,6.55Z" style="fill:#fff;opacity:0.2"></path><polygon points="244.16 242.09 311.39 242.09 335.47 166.96 278.83 166.96 244.16 242.09" style="isolation:isolate;opacity:0.2"></polygon><polygon points="287.97 180.48 278.83 166.96 335.47 166.96 331.21 180.48 287.97 180.48" style="isolation:isolate;opacity:0.2"></polygon><polygon points="287.45 264.88 249.81 264.88 254.38 246.91 292.02 246.91 287.45 264.88" style="fill:#263238"></polygon><polygon points="287.45 264.88 249.81 264.88 254.38 246.91 292.02 246.91 287.45 264.88" style="fill:#fff;opacity:0.2"></polygon><path d="M288,249.16H256.91a1.23,1.23,0,0,0-1.19,1l-.85,3.63a.93.93,0,0,0,.91,1.15h8.15a.93.93,0,0,1,.91,1.13l-1,4.81a.93.93,0,0,0,.91,1.12h8a1.9,1.9,0,0,0,1.86-1.49l.9-4.07a1.9,1.9,0,0,1,1.86-1.5h8.43a1.9,1.9,0,0,0,1.86-1.48l.82-3.55A.58.58,0,0,0,288,249.16Z" style="fill:#263238"></path><polyline points="331.21 180.48 287.97 180.48 266.08 235.12 313.63 235.12 331.21 180.48" style="fill:#263238"></polyline><polyline points="331.21 180.48 287.97 180.48 266.08 235.12 313.63 235.12 331.21 180.48" style="fill:#fff;opacity:0.5"></polyline><polyline points="329.41 185.88 289.84 185.88 278.83 213.23 320.35 213.23" style="fill:#797C86"></polyline><polygon points="284.47 213.23 294.95 185.88 289.84 185.88 278.83 213.23 284.47 213.23" style="isolation:isolate;opacity:0.2"></polygon><polygon points="276.44 219.68 274.36 225.52 295.8 225.52 297.47 219.68 276.44 219.68" style="isolation:isolate;opacity:0.2"></polygon><polygon points="276.39 221.9 276.14 222.6 295.57 222.6 295.77 221.9 276.39 221.9" style="isolation:isolate;opacity:0.4"></polygon><polyline points="318.58 219.68 306 219.68 303.93 225.52 316.86 225.52" style="isolation:isolate;opacity:0.2"></polyline><path d="M286,211.76l9.81-24.67h29.69s-14.8,8.59-25.94,16.08a166,166,0,0,1,13.15-12.61h-4S294.32,199.88,286,211.76Z" style="fill:#fff;opacity:0.2"></path><polygon points="244.16 242.09 266.08 235.12 313.63 235.12 311.39 242.09 244.16 242.09" style="fill:#263238"></polygon><polygon points="244.16 242.09 266.08 235.12 313.63 235.12 311.39 242.09 244.16 242.09" style="fill:#fff;opacity:0.6000000000000001"></polygon><polygon points="258.65 239.78 261.45 230.59 284.47 230.59 288.37 235.88 283.26 239.78 258.65 239.78" style="fill:#263238"></polygon><polygon points="258.65 239.78 261.45 230.59 284.47 230.59 288.37 235.88 283.26 239.78 258.65 239.78" style="fill:#fff;opacity:0.2"></polygon><polygon points="259.87 239.78 262.31 231.74 282.04 231.74 282.04 239.78 259.87 239.78" style="fill:#263238"></polygon><ellipse cx="308.2" cy="156.27" rx="20.75" ry="4.51" transform="translate(-20.81 50.64) rotate(-9.09)" style="fill:#fff"></ellipse><text transform="matrix(1.02, 0, -0.16, 0.99, 291.25, 160.56)" style="font-size:12.345399856567383px;fill:#263238;font-family:Montserrat-ExtraBoldItalic, Montserrat;font-weight:800;font-style:italic;letter-spacing:-0.03498464510687466em">A<tspan x="9.27" y="0" style="letter-spacing:-0.000038828684913290405em">TM</tspan></text><rect x="287.7" y="289.72" width="18.12" height="18.12" style="fill:#fff;opacity:0.2"></rect><rect x="267.84" y="289.72" width="18.12" height="18.12" style="fill:#fff;opacity:0.2"></rect><rect x="232.32" y="299.69" width="7.09" height="7.09" style="fill:#fff;opacity:0.2"></rect></g><g id="freepik--trash-bin--inject-55"><path d="M417.77,392.58a2.9,2.9,0,0,0-2.32-4.16,6.2,6.2,0,0,0-2-6.77,1.45,1.45,0,0,0-.85-.37,1.59,1.59,0,0,0-.92.4l-5.42,3.89a3.22,3.22,0,0,0-1.07,1.07c-1.11,2.14,2.88,4.89,1.24,6.67-.47.51-1.23.61-1.82,1-1.29.8-1.44,2.58-2,4s-2.7,2.49-3.5,1.19c.59-1.34-1.2-2.49-2.66-2.66s-3-.25-3.78-1.62c-2.07,1.81-6.69-3.23-6.58-5.26-1.7.13-2.86,1.72-3.23,3.31a23.09,23.09,0,0,0-.17,5.06c-.06,3.29-1.12,6.51-1.06,9.8.05,2.55,1,5.39,3.38,6.42a8.72,8.72,0,0,0,3.63.49l26.67-.17a4,4,0,0,0,1.88-.31c1.2-.63,1.46-2.21,1.57-3.56q.72-8.7,1.43-17.39Z" style="fill:#797C86"></path><path d="M417.77,392.58a2.9,2.9,0,0,0-2.32-4.16,6.2,6.2,0,0,0-2-6.77,1.45,1.45,0,0,0-.85-.37,1.59,1.59,0,0,0-.92.4l-5.42,3.89a3.22,3.22,0,0,0-1.07,1.07c-1.11,2.14,2.88,4.89,1.24,6.67-.47.51-1.23.61-1.82,1-1.29.8-1.44,2.58-2,4s-2.7,2.49-3.5,1.19c.59-1.34-1.2-2.49-2.66-2.66s-3-.25-3.78-1.62c-2.07,1.81-6.69-3.23-6.58-5.26-1.7.13-2.86,1.72-3.23,3.31a23.09,23.09,0,0,0-.17,5.06c-.06,3.29-1.12,6.51-1.06,9.8.05,2.55,1,5.39,3.38,6.42a8.72,8.72,0,0,0,3.63.49l26.67-.17a4,4,0,0,0,1.88-.31c1.2-.63,1.46-2.21,1.57-3.56q.72-8.7,1.43-17.39Z" style="fill:#fff;isolation:isolate;opacity:0.30000000000000004"></path><path d="M419.32,364.39H377.94l.34,4.18.24,3,.63,7.77.36,4.47.48,5.94.2,2.54.07.76.24,3,.34,4.1.2,2.55.21,2.59.25,3,.18,2.27.21,2.55.08,1.1h38l.08-1.1.21-2.54.18-2.29.25-3,.21-2.58.2-2.55.33-4.11.25-3,.06-.76.2-2.54.49-5.94.36-4.46.62-7.78.24-3,.34-4.18Zm2.49,2.74h0l-.79-.8h.86Zm-.2,2.54-.08,1-3.7,3.7-4.25-4.25,3.8-3.8h.89Zm-1.07,13.24-2.71,2.71-4.25-4.25,4.25-4.24,2.93,2.94Zm-39.38-2.84h0l2.93-2.94,4.25,4.24-4.25,4.25-2.7-2.71Zm35.3-4.32L412.21,380,408,375.75l4.25-4.25Zm-6.69-9.42h4.87l-2.43,2.43Zm1.05,15-4.23,4.25-4.25-4.25,4.25-4.24ZM396.72,387l4.24-4.24L405.2,387,401,391.24Zm2.86,5.63-4.25,4.24-4.24-4.24,4.25-4.24Zm7-4.24,4.23,4.24-4.23,4.24-4.25-4.24ZM401,380l-4.24-4.25L401,371.5l4.24,4.25Zm-1.38,1.37-4.24,4.25-4.25-4.25,4.25-4.24ZM389.71,380l-4.24-4.25,4.24-4.25,4.25,4.25Zm0,2.75L394,387l-4.25,4.25L385.47,387Zm4.25,15.5-4.25,4.24-4.24-4.24,4.24-4.25Zm1.37,1.37,4.25,4.25-4.24,4.25-4.25-4.25Zm1.39-1.37L401,394l4.24,4.25L401,402.49Zm9.87,1.37,4.23,4.25-4.23,4.25-4.25-4.25Zm5.62,5.62,4.25,4.25-2.76,2.75h-3L408,409.49Zm-4.25-7,4.25-4.25,4.25,4.25-4.25,4.24ZM408,387l4.25-4.24,4.25,4.24-4.25,4.25Zm2.86-16.86-4.23,4.25-4.25-4.25,3.8-3.8H407ZM401,368.76l-2.43-2.43h4.86Zm-1.38,1.37-4.24,4.25-4.25-4.25,3.81-3.8h.89Zm-7.44-3.8-2.43,2.43-2.42-2.43Zm-7.6,0,3.8,3.8-4.25,4.25-3.69-3.7-.08-1,3.33-3.34Zm-3.64,0-.78.79h0l-.07-.79Zm-.26,7.34,2.08,2.08L381,377.52Zm1.16,14.25-.17-2h0l1.09,1.08-.92.93Zm.2,2.56,2.09-2.1,4.25,4.24-4.25,4.24-1.71-1.71Zm.63,7.85v-.18l.1.1-.09.08Zm.74,9.06-.53-6.52,1.25-1.25,4.25,4.25-4.25,4.24-.72-.72Zm.39,4.85-.08-1,.41-.41,1.38,1.38Zm1.71-2.75,4.24-4.25,4.25,4.25-2.75,2.75h-3Zm8.49,2.75,1.38-1.38,1.38,1.38Zm5.51,0-2.75-2.75,4.24-4.25,4.24,4.25-2.74,2.75Zm5.73,0,1.39-1.38,1.38,1.38Zm13,0h-1.71l1.38-1.38.41.41Zm.4-4.85-.73.72-4.25-4.24,4.25-4.25,1.25,1.25Zm.74-9.25,0,.19-.08-.08.1-.11Zm.25-3-1.72,1.71-4.25-4.24,4.25-4.24,2.1,2.1Zm.58-7.22-.93-.94,1.1-1.08Zm1.16-14.27-.31,3.87-1.78-1.78,2.09-2.09Z" style="fill:#797C86"></path><g style="isolation:isolate;opacity:0.6000000000000001"><path d="M419.32,364.39H377.94l.34,4.18.24,3,.63,7.77.36,4.47.48,5.94.2,2.54.07.76.24,3,.34,4.1.2,2.55.21,2.59.25,3,.18,2.27.21,2.55.08,1.1h38l.08-1.1.21-2.54.18-2.29.25-3,.21-2.58.2-2.55.33-4.11.25-3,.06-.76.2-2.54.49-5.94.36-4.46.62-7.78.24-3,.34-4.18Zm2.49,2.74h0l-.79-.8h.86Zm-.2,2.54-.08,1-3.7,3.7-4.25-4.25,3.8-3.8h.89Zm-1.07,13.24-2.71,2.71-4.25-4.25,4.25-4.24,2.93,2.94Zm-39.38-2.84h0l2.93-2.94,4.25,4.24-4.25,4.25-2.7-2.71Zm35.3-4.32L412.21,380,408,375.75l4.25-4.25Zm-6.69-9.42h4.87l-2.43,2.43Zm1.05,15-4.23,4.25-4.25-4.25,4.25-4.24ZM396.72,387l4.24-4.24L405.2,387,401,391.24Zm2.86,5.63-4.25,4.24-4.24-4.24,4.25-4.24Zm7-4.24,4.23,4.24-4.23,4.24-4.25-4.24ZM401,380l-4.24-4.25L401,371.5l4.24,4.25Zm-1.38,1.37-4.24,4.25-4.25-4.25,4.25-4.24ZM389.71,380l-4.24-4.25,4.24-4.25,4.25,4.25Zm0,2.75L394,387l-4.25,4.25L385.47,387Zm4.25,15.5-4.25,4.24-4.24-4.24,4.24-4.25Zm1.37,1.37,4.25,4.25-4.24,4.25-4.25-4.25Zm1.39-1.37L401,394l4.24,4.25L401,402.49Zm9.87,1.37,4.23,4.25-4.23,4.25-4.25-4.25Zm5.62,5.62,4.25,4.25-2.76,2.75h-3L408,409.49Zm-4.25-7,4.25-4.25,4.25,4.25-4.25,4.24ZM408,387l4.25-4.24,4.25,4.24-4.25,4.25Zm2.86-16.86-4.23,4.25-4.25-4.25,3.8-3.8H407ZM401,368.76l-2.43-2.43h4.86Zm-1.38,1.37-4.24,4.25-4.25-4.25,3.81-3.8h.89Zm-7.44-3.8-2.43,2.43-2.42-2.43Zm-7.6,0,3.8,3.8-4.25,4.25-3.69-3.7-.08-1,3.33-3.34Zm-3.64,0-.78.79h0l-.07-.79Zm-.26,7.34,2.08,2.08L381,377.52Zm1.16,14.25-.17-2h0l1.09,1.08-.92.93Zm.2,2.56,2.09-2.1,4.25,4.24-4.25,4.24-1.71-1.71Zm.63,7.85v-.18l.1.1-.09.08Zm.74,9.06-.53-6.52,1.25-1.25,4.25,4.25-4.25,4.24-.72-.72Zm.39,4.85-.08-1,.41-.41,1.38,1.38Zm1.71-2.75,4.24-4.25,4.25,4.25-2.75,2.75h-3Zm8.49,2.75,1.38-1.38,1.38,1.38Zm5.51,0-2.75-2.75,4.24-4.25,4.24,4.25-2.74,2.75Zm5.73,0,1.39-1.38,1.38,1.38Zm13,0h-1.71l1.38-1.38.41.41Zm.4-4.85-.73.72-4.25-4.24,4.25-4.25,1.25,1.25Zm.74-9.25,0,.19-.08-.08.1-.11Zm.25-3-1.72,1.71-4.25-4.24,4.25-4.24,2.1,2.1Zm.58-7.22-.93-.94,1.1-1.08Zm1.16-14.27-.31,3.87-1.78-1.78,2.09-2.09Z" style="fill:#fff"></path></g><rect x="375.29" y="362.65" width="51.35" height="5.41" rx="1.98" transform="translate(801.92 730.72) rotate(180)" style="fill:#797C86"></rect><rect x="378.99" y="411.27" width="43.94" height="5.41" rx="1.98" style="fill:#797C86"></rect></g><g id="freepik--speech-bubble--inject-55"><rect x="166.46" y="104.89" width="36.13" height="36.13" rx="3.03" style="fill:#797C86"></rect><path d="M180.38,137.81s1.85,10.18,15.3,14.77c0,0-7.65-7.38-7.65-14.77Z" style="fill:#797C86"></path><path d="M185.78,130.73v2.57h-1.92v-2.55a10.36,10.36,0,0,1-5.72-1.9l1.05-2.32a9.07,9.07,0,0,0,4.67,1.74v-4.58c-2.59-.62-5.37-1.45-5.37-4.64,0-2.34,1.73-4.38,5.37-4.72v-2.59h1.92v2.54a10.26,10.26,0,0,1,4.74,1.4l-1,2.32a9.83,9.83,0,0,0-3.78-1.24v4.63c2.59.62,5.42,1.42,5.42,4.61C191.2,128.34,189.45,130.36,185.78,130.73Zm-1.92-9.82v-4.08c-1.66.25-2.36,1.08-2.36,2.09S182.51,120.52,183.86,120.91Zm4.35,5.3c0-1.12-1-1.65-2.43-2v4.06C187.48,128,188.21,127.2,188.21,126.21Z" style="fill:#fff"></path></g><g id="freepik--Character--inject-55"><path d="M178.06,227c-1.25-.35-8.89,15-8.76,16.45S179.71,246,179.71,246Z" style="fill:#797C86"></path><path d="M178.06,227c-1.25-.35-8.89,15-8.76,16.45S179.71,246,179.71,246Z" style="opacity:0.4"></path><path d="M178.06,227s-9,22.47-6.72,27.74,29.41,5.41,32.31,5,4.76-28.11,4.76-28.11A140.88,140.88,0,0,1,178.06,227Z" style="fill:#797C86"></path><path d="M178.06,227s-9,22.47-6.72,27.74,29.41,5.41,32.31,5,4.76-28.11,4.76-28.11A140.88,140.88,0,0,1,178.06,227Z" style="opacity:0.2"></path><path d="M196.55,197.42c-.49.45-1.16,1.09-1.75,1.66s-1.2,1.19-1.79,1.81c-1.16,1.24-2.33,2.49-3.43,3.8a70,70,0,0,0-6,8.19l-.64,1.08-.32.54-.16.27c0,.1,0,0,0,0a2.57,2.57,0,0,0,.09-.58,3,3,0,0,0-.09-.91,3.13,3.13,0,0,0-.59-1.22,2.81,2.81,0,0,0-1.44-1c-.25-.06-.3,0-.3,0a5.26,5.26,0,0,0,1.67,0c.76-.08,1.58-.22,2.41-.39,3.34-.69,6.87-1.64,10.34-2.52l1.83,4.15a61.11,61.11,0,0,1-10.13,5.18c-.92.35-1.86.69-2.89,1a13,13,0,0,1-3.75.55,6.81,6.81,0,0,1-1.64-.25,4.92,4.92,0,0,1-3.45-3.58,5.42,5.42,0,0,1-.12-1.59,6.33,6.33,0,0,1,.44-1.9l.25-.58.16-.33.31-.67.65-1.33a61.69,61.69,0,0,1,6.35-9.84c1.21-1.51,2.46-3,3.81-4.39.67-.71,1.36-1.4,2.06-2.08s1.4-1.3,2.28-2Z" style="fill:#e9b376"></path><path d="M190.05,188.57a20.43,20.43,0,0,0-7.42,7.81l9.1,10S202.43,181.17,190.05,188.57Z" style="fill:#797C86"></path><path d="M194.56,198.43a83.91,83.91,0,0,1-2.83,7.92l-3.74-4.1-5.36-5.87a20.43,20.43,0,0,1,7.42-7.81C197.66,184,196.55,191.78,194.56,198.43Z" style="fill:#fff;opacity:0.6000000000000001"></path><path d="M194.56,198.43a83.91,83.91,0,0,1-2.83,7.92l-3.74-4.1a12.28,12.28,0,0,1,5.79-5.47A9.86,9.86,0,0,1,194.56,198.43Z" style="isolation:isolate;opacity:0.2"></path><path d="M233.89,158.34s9.65,32.08-10.67,36.38-22.45-10.46-22.45-10.46S217.41,159,233.89,158.34Z" style="fill:#263238"></path><path d="M238.24,165.86a.23.23,0,0,1-.17-.07,3.67,3.67,0,0,0-3-1,.25.25,0,0,1-.12-.48,4.06,4.06,0,0,1,3.48,1.1.25.25,0,0,1-.18.42Z" style="fill:#263238"></path><path d="M236.74,170.52a16,16,0,0,0,1.9,3.24,2,2,0,0,1-2,.67Z" style="fill:#d58745"></path><path d="M238.19,168.6c0,.61-.4,1.08-.8,1.06s-.7-.54-.67-1.15.39-1.08.8-1S238.22,168,238.19,168.6Z" style="fill:#263238"></path><path d="M237.35,167.48l1.35-.44S238,168.11,237.35,167.48Z" style="fill:#263238"></path><path d="M220.11,179.92a1.39,1.39,0,0,0,.21.21,11.23,11.23,0,0,0,3.58,2.41c3.93,1.49,6.78,1.32,8.84-.27h0c2.92-2.4,4.22-7.2,4.68-13.13a22.52,22.52,0,0,0-.34-7s0-.09,0-.11l-.06-.26a8.11,8.11,0,0,0-5.23-5.72,16.65,16.65,0,0,0-3.43-.87C216.9,153.43,212.22,172.15,220.11,179.92Z" style="fill:#ebb376"></path><path d="M220.32,180.13a10.94,10.94,0,0,0,3.6,2.25c3.93,1.49,6.8,1.19,8.87-.43a11.54,11.54,0,0,1-7.2-1.6A6.05,6.05,0,0,0,220.32,180.13Z" style="isolation:isolate;opacity:0.2"></path><path d="M237.1,162s-.47,8.14-8.58,10.54c0,0-4.42,7.91-9.26,7.37-6.6-.75-11.1-10.9-7.51-20.11C216.4,147.86,235.26,149.43,237.1,162Z" style="fill:#263238"></path><path d="M232.7,170.78c.17-1.26-.54-3.51-2.54-3.49s-3.86,4.84,1,6.64C231.8,174.19,232.35,173.4,232.7,170.78Z" style="fill:#ebb376"></path><path d="M224.26,151.53s8-.89,11.77,2.78c4.46,4.29,5.83,8.28-.84,13.26,0,0-12.32-5.95-16.73-5.66a47.69,47.69,0,0,0-7.64,1.12C211.09,154.39,220.22,149.19,224.26,151.53Z" style="fill:#263238"></path><path d="M225.92,182.11s-4,5.19-3.52,11.48l-19-4.31s11.66-6.82,12.3-12.35C215.71,176.93,224.42,175.33,225.92,182.11Z" style="fill:#ebb376"></path><path d="M187.66,235.13c6.29,1.13,19.65.6,32.57,3,15.39-42.36,11.64-41.15,11.64-41.15s-3.2-4.28-7.33-5.78l-.44-.16c-2.08-.71-2.52-.82-5.31-1.57-4.8-1.06-9.26-1.93-14.79-2.68l-1.05-.13c-1-.12-2-.22-3-.3-.64-.07-1.29-.11-1.9-.15l-2.11-.11a8.11,8.11,0,0,0-5.93,2.52C191.92,215,190.38,222.91,187.66,235.13Z" style="fill:#797C86"></path><path d="M231.57,202.8A211.38,211.38,0,0,1,225.19,224c-1.37,4.05-3,8.71-5,14.07-12.92-2.35-26.28-1.82-32.57-3,2.72-12.22,4.26-20.13,2.39-46.56a8.11,8.11,0,0,1,5.93-2.52l2.11.11c.61,0,1.26.08,1.9.15,1,.08,1.95.18,3,.3l1.05.13c5.53.75,10,1.62,14.79,2.68,2.79.75,3.23.86,5.31,1.57l.44.16c4.13,1.5,7.33,5.78,7.33,5.78S233,196.58,231.57,202.8Z" style="fill:#fff;opacity:0.6000000000000001"></path><path d="M231.57,202.8A211.38,211.38,0,0,1,225.19,224a18.08,18.08,0,0,1-1.69-15.74C224.79,204.74,228,203.24,231.57,202.8Z" style="opacity:0.2"></path><path d="M232.61,199.81c.62,2.18,1.28,4.54,2,6.79s1.43,4.55,2.22,6.79,1.62,4.47,2.5,6.66c.43,1.1.9,2.18,1.36,3.27.22.54.47,1.07.71,1.6l.37.8.17.39s0,0,0,.09a4.7,4.7,0,0,0,1.37,1.4,17.35,17.35,0,0,0,2.59,1.52,47.64,47.64,0,0,0,6.33,2.47c4.45,1.41,9.19,2.58,13.86,3.57l-.42,4.53a84.09,84.09,0,0,1-15.14-1.44,48,48,0,0,1-7.65-2.1,25,25,0,0,1-3.93-1.88,12.41,12.41,0,0,1-3.95-3.62,6.93,6.93,0,0,1-.44-.7l-.23-.43-.46-.85c-.31-.56-.62-1.13-.91-1.7-.59-1.13-1.15-2.28-1.68-3.44-1.08-2.3-2.08-4.64-3-7s-1.78-4.74-2.55-7.14-1.48-4.78-2.09-7.36Z" style="fill:#e9b376"></path><path d="M264.63,235.77l5.89-2.36,1,5.56s-5.32,3.22-7.53-.61Z" style="fill:#ebb376"></path><polygon points="273.44 233.75 275.33 238.05 271.52 238.97 270.52 233.41 273.44 233.75" style="fill:#ebb376"></polygon><path d="M228.79,194.21c5.07,3.32,8.31,10.69,9.17,14.92l-11.78,9.6s-6.42-14.33-4.31-18S226.87,193,228.79,194.21Z" style="fill:#797C86"></path><path d="M245.62,408.42,251,407c-2-27.14-7.29-59.9-11.82-84.46-.71-3.85-1.4-7.49-2.06-10.88l-.9-4.65c-1.44-7.37-2.65-13.18-3.41-16.78-.55-2.62-.86-4.06-.86-4.06l-19.36,5.61,1.61,4.88,5.32,16.1.61,1.84,3.52,10.63,6,18.1C230.46,371,245.62,408.42,245.62,408.42Z" style="fill:#ebb376"></path><path d="M198.68,407.11l5.56-.54c2.9-29.44,3-66.09,2.62-91.56-.07-3.95-.14-7.63-.21-11,0-.18,0-.34,0-.5-.16-6.63-.33-11.9-.45-15.24l-.17-4-20,2.24,1.25,8.33,1.82,12.25.36,2.39,1.25,8.35L194,340.19C190.11,367.62,198.68,407.11,198.68,407.11Z" style="fill:#ebb376"></path><path d="M189.05,307.08l17.6-3c0-.18,0-.34,0-.5-.16-6.63-.33-11.9-.45-15.24l-19,6.53Z" style="isolation:isolate;opacity:0.2"></path><path d="M234.75,299.6l-18.52,3.14-2-6.13,18.6-6.43C233.29,292.47,234,295.67,234.75,299.6Z" style="isolation:isolate;opacity:0.2"></path><path d="M186.77,233.62s-12,28.06-.79,68.75c0,0,6.21,2.13,21.88-.19a121.18,121.18,0,0,0,26.67-7.48c-6.74-33-12.82-48-12.82-48l-.27-9.28Z" style="fill:#263238"></path><path d="M196,406c0-.69,8.6-.15,8.6-.15s5.28,5.37,10.41,6.58,2.26,4.29-3.47,4.29H197.4C193.32,416.69,195.87,413.22,196,406Z" style="fill:#263238"></path><path d="M209.16,408a10.64,10.64,0,0,1-3.56-1.09.16.16,0,0,1-.08-.06h0l0,0a.28.28,0,0,1,0-.18c0-.08.75-2.09,1.92-2.57a1.34,1.34,0,0,1,1.11,0c.39.19.58.43.56.72,0,.45-.64.91-1.33,1.28a3.52,3.52,0,0,1,1.92.21.91.91,0,0,1,.46.58.8.8,0,0,1-.21.91A1.15,1.15,0,0,1,209.16,408Zm-2.78-1.23c1.27.53,2.84,1,3.25.68,0,0,.14-.12.05-.46a.5.5,0,0,0-.24-.3C208.82,406.36,207.35,406.58,206.38,406.79Zm1.54-2.36a.87.87,0,0,0-.35.07,3.78,3.78,0,0,0-1.47,1.84c1.27-.48,2.5-1.15,2.52-1.53,0-.12-.19-.23-.31-.29A.92.92,0,0,0,207.92,404.43Z" style="fill:#797C86"></path><path d="M244.09,406c0-.69,8.6-.15,8.6-.15s5.28,5.37,10.41,6.58,2.26,4.29-3.47,4.29H245.45C241.37,416.69,243.92,413.22,244.09,406Z" style="fill:#263238"></path><path d="M257.21,408a10.64,10.64,0,0,1-3.56-1.09.16.16,0,0,1-.08-.06h0l0,0a.28.28,0,0,1,0-.18c0-.08.75-2.09,1.92-2.57a1.34,1.34,0,0,1,1.11,0c.39.19.58.43.56.72,0,.45-.64.91-1.33,1.28a3.52,3.52,0,0,1,1.92.21.91.91,0,0,1,.46.58.8.8,0,0,1-.21.91A1.15,1.15,0,0,1,257.21,408Zm-2.78-1.23c1.27.53,2.84,1,3.25.68,0,0,.14-.12.05-.46a.5.5,0,0,0-.24-.3C256.87,406.36,255.4,406.58,254.43,406.79Zm1.54-2.36a.87.87,0,0,0-.35.07,3.78,3.78,0,0,0-1.47,1.84c1.27-.48,2.5-1.15,2.52-1.53,0-.12-.19-.23-.31-.29A.92.92,0,0,0,256,404.43Z" style="fill:#797C86"></path><path d="M194.19,240l18.45,1.93v-4.19L194.73,236C194.59,237,194.36,238.65,194.19,240Z"></path><polygon points="214.08 237.87 214.08 242.07 221.72 242.87 221.72 238.62 214.08 237.87"></polygon><polygon points="193.26 235.81 185.5 235.04 184.53 238.98 192.53 239.81 193.26 235.81"></polygon><path d="M228.79,194.21c5.07,3.32,8.31,10.69,9.17,14.92l-11.78,9.6s-6.42-14.33-4.31-18S226.87,193,228.79,194.21Z" style="fill:#fff;opacity:0.6000000000000001"></path><path d="M198.78,185.18s-8.38,8.72-19.66,44.55l-1.8-.45S189.32,188.45,198.78,185.18Z" style="fill:#797C86"></path><path d="M228.52,172.55s.06,11.64-10.05,15.5-3.8,16.42-15.06,14.94c-6-.79-14.52-13.71,0-25.09,8.47-6.63-1.6-28.42,20.85-26.37C224.26,151.53,223.88,166.46,228.52,172.55Z" style="fill:#263238"></path></g></svg>